<svg xmlns="http://www.w3.org/2000/svg" width="900" height="520" viewBox="0 0 900 520" font-family="Georgia, serif">
  <defs>
    <radialGradient id="felt" cx="50%" cy="40%" r="70%">
      <stop offset="0%" stop-color="#1e6b3c"/>
      <stop offset="100%" stop-color="#0f3d22"/>
    </radialGradient>
    <radialGradient id="feltzone" cx="50%" cy="50%" r="60%">
      <stop offset="0%" stop-color="#225e3a"/>
      <stop offset="100%" stop-color="#163328"/>
    </radialGradient>
    <pattern id="hatch" patternUnits="userSpaceOnUse" width="8" height="8" patternTransform="rotate(135)">
      <rect width="8" height="8" fill="#1a4d8e"/>
      <line x1="0" y1="0" x2="0" y2="8" stroke="#2266bb" stroke-width="4"/>
    </pattern>
    <filter id="shadow" x="-10%" y="-10%" width="120%" height="130%">
      <feDropShadow dx="2" dy="3" stdDeviation="3" flood-color="#000" flood-opacity="0.5"/>
    </filter>
    <filter id="glow">
      <feGaussianBlur stdDeviation="3" result="blur"/>
      <feMerge><feMergeNode in="blur"/><feMergeNode in="SourceGraphic"/></feMerge>
    </filter>
  </defs>

  <!-- Background felt -->
  <rect width="900" height="520" fill="url(#felt)"/>
  <!-- Subtle texture dots -->
  <rect width="900" height="520" fill="none" opacity="0.03"
    style="background-image:radial-gradient(circle, white 1px, transparent 1px);background-size:30px 30px;"/>

  <!-- TOP BAR -->
  <rect x="0" y="0" width="900" height="46" fill="rgba(0,0,0,0.45)"/>
  <line x1="0" y1="46" x2="900" y2="46" stroke="#7a5f10" stroke-width="2"/>
  <!-- Logo -->
  <text x="18" y="30" font-family="Georgia,serif" font-size="18" font-weight="bold" fill="#f0d060" letter-spacing="1">HAND</text>
  <text x="78" y="30" font-family="Georgia,serif" font-size="13" font-style="italic" fill="#fdf8ee"> over </text>
  <text x="112" y="30" font-family="Georgia,serif" font-size="18" font-weight="bold" fill="#f0d060" letter-spacing="1">FOOT</text>
  <!-- Round badge -->
  <rect x="330" y="10" width="110" height="26" rx="5" fill="#c9a030"/>
  <text x="385" y="28" font-family="Georgia,serif" font-size="12" font-weight="bold" fill="#1a0e00" text-anchor="middle" letter-spacing="1">ROUND 2 OF 4</text>
  <!-- Min meld -->
  <rect x="450" y="10" width="110" height="26" rx="5" fill="none" stroke="#7a5f10" stroke-width="1.5"/>
  <text x="505" y="28" font-family="Georgia,serif" font-size="11" fill="#c9a030" text-anchor="middle">MIN 90 PTS</text>
  <!-- Score chips -->
  <rect x="720" y="8" width="70" height="30" rx="15" fill="rgba(0,0,0,0.4)" stroke="#c9a030" stroke-width="2"/>
  <text x="755" y="20" font-size="9" fill="rgba(253,248,238,0.5)" text-anchor="middle" font-family="Georgia,serif">P1</text>
  <text x="755" y="33" font-size="14" fill="#f0d060" text-anchor="middle" font-family="Georgia,serif" font-weight="bold">340</text>
  <rect x="800" y="8" width="82" height="30" rx="15" fill="rgba(0,0,0,0.4)" stroke="#7a5f10" stroke-width="2"/>
  <text x="841" y="20" font-size="9" fill="rgba(253,248,238,0.5)" text-anchor="middle" font-family="Georgia,serif">SHARK</text>
  <text x="841" y="33" font-size="14" fill="#f0d060" text-anchor="middle" font-family="Georgia,serif" font-weight="bold">290</text>

  <!-- P2 ZONE (top) -->
  <rect x="10" y="54" width="880" height="110" rx="10" fill="rgba(0,0,0,0.22)" stroke="rgba(201,160,48,0.18)" stroke-width="2"/>
  <text x="22" y="74" font-family="Georgia,serif" font-size="13" font-weight="bold" fill="#c9a030">Card Shark</text>
  <rect x="120" y="60" width="54" height="18" rx="3" fill="#c0392b"/>
  <text x="147" y="73" font-size="9" fill="white" text-anchor="middle" font-family="Georgia,serif" font-weight="bold">ON FOOT</text>
  <text x="860" y="74" font-size="11" fill="rgba(253,248,238,0.38)" text-anchor="end" font-family="Georgia,serif">8 cards</text>
  <!-- AI face-down cards -->
  <g filter="url(#shadow)">
  <!-- 8 back-face cards for AI -->
  <rect x="22" y="80" width="46" height="66" rx="6" fill="url(#hatch)" stroke="#3a7acc" stroke-width="2"/>
  <rect x="74" y="80" width="46" height="66" rx="6" fill="url(#hatch)" stroke="#3a7acc" stroke-width="2"/>
  <rect x="126" y="80" width="46" height="66" rx="6" fill="url(#hatch)" stroke="#3a7acc" stroke-width="2"/>
  <rect x="178" y="80" width="46" height="66" rx="6" fill="url(#hatch)" stroke="#3a7acc" stroke-width="2"/>
  <rect x="230" y="80" width="46" height="66" rx="6" fill="url(#hatch)" stroke="#3a7acc" stroke-width="2"/>
  <rect x="282" y="80" width="46" height="66" rx="6" fill="url(#hatch)" stroke="#3a7acc" stroke-width="2"/>
  <rect x="334" y="80" width="46" height="66" rx="6" fill="url(#hatch)" stroke="#3a7acc" stroke-width="2"/>
  <rect x="386" y="80" width="46" height="66" rx="6" fill="url(#hatch)" stroke="#3a7acc" stroke-width="2"/>
  </g>

  <!-- CENTER STRIP -->
  <!-- P1 Melds label -->
  <text x="22" y="184" font-size="9" fill="rgba(253,248,238,0.32)" font-family="Georgia,serif" letter-spacing="1">P1 MELDS</text>
  <!-- Meld block: 9s clean book -->
  <rect x="22" y="190" width="68" height="70" rx="6" fill="rgba(30,111,181,0.1)" stroke="#1e6fb5" stroke-width="1.5"/>
  <text x="28" y="203" font-size="9" fill="#c9a030" font-family="Georgia,serif" font-weight="bold">9s</text>
  <rect x="56" y="194" width="28" height="12" rx="3" fill="#1e6fb5"/>
  <text x="70" y="203" font-size="7" fill="white" text-anchor="middle" font-family="Georgia,serif" font-weight="bold">✓CLEAN</text>
  <!-- mini cards in meld -->
  <g font-family="Georgia,serif" font-size="8" font-weight="bold">
    <rect x="26" y="207" width="16" height="23" rx="2" fill="#fdfaf2" stroke="#ccc" stroke-width="1"/>
    <text x="34" y="223" fill="#1a1a2e" text-anchor="middle">9</text>
    <rect x="44" y="207" width="16" height="23" rx="2" fill="#fdfaf2" stroke="#ccc" stroke-width="1"/>
    <text x="52" y="223" fill="#c0392b" text-anchor="middle">9</text>
    <rect x="26" y="232" width="16" height="23" rx="2" fill="#fdfaf2" stroke="#ccc" stroke-width="1"/>
    <text x="34" y="248" fill="#1a1a2e" text-anchor="middle">9</text>
    <rect x="44" y="232" width="16" height="23" rx="2" fill="#fdfaf2" stroke="#ccc" stroke-width="1"/>
    <text x="52" y="248" fill="#c0392b" text-anchor="middle">9</text>
  </g>

  <!-- Meld block: Ks dirty -->
  <rect x="96" y="190" width="68" height="70" rx="6" fill="rgba(123,63,160,0.1)" stroke="#7b3fa0" stroke-width="1.5"/>
  <text x="102" y="203" font-size="9" fill="#c9a030" font-family="Georgia,serif" font-weight="bold">Ks</text>
  <rect x="128" y="194" width="30" height="12" rx="3" fill="#7b3fa0"/>
  <text x="143" y="203" font-size="7" fill="white" text-anchor="middle" font-family="Georgia,serif" font-weight="bold">✓DIRTY</text>
  <g font-family="Georgia,serif" font-size="8" font-weight="bold">
    <rect x="100" y="207" width="16" height="23" rx="2" fill="#fdfaf2" stroke="#ccc" stroke-width="1"/>
    <text x="108" y="223" fill="#1a1a2e" text-anchor="middle">K</text>
    <rect x="118" y="207" width="16" height="23" rx="2" fill="#fdfaf2" stroke="#ccc" stroke-width="1"/>
    <text x="126" y="223" fill="#c0392b" text-anchor="middle">K</text>
    <rect x="136" y="207" width="16" height="23" rx="2" fill="#fdfaf2" stroke="#9b59b6" stroke-width="1"/>
    <text x="144" y="223" fill="#6c3483" text-anchor="middle">2</text>
    <rect x="100" y="232" width="16" height="23" rx="2" fill="#fdfaf2" stroke="#ccc" stroke-width="1"/>
    <text x="108" y="248" fill="#1a1a2e" text-anchor="middle">K</text>
  </g>

  <!-- Meld block: As incomplete -->
  <rect x="170" y="190" width="60" height="50" rx="6" fill="rgba(0,0,0,0.3)" stroke="rgba(30,111,181,0.45)" stroke-width="1" stroke-dasharray="4,3"/>
  <text x="176" y="203" font-size="9" fill="#c9a030" font-family="Georgia,serif" font-weight="bold">As</text>
  <g font-family="Georgia,serif" font-size="8" font-weight="bold">
    <rect x="174" y="207" width="16" height="23" rx="2" fill="#fdfaf2" stroke="#ccc" stroke-width="1"/>
    <text x="182" y="223" fill="#c0392b" text-anchor="middle">A</text>
    <rect x="192" y="207" width="16" height="23" rx="2" fill="#fdfaf2" stroke="#ccc" stroke-width="1"/>
    <text x="200" y="223" fill="#1a1a2e" text-anchor="middle">A</text>
    <rect x="210" y="207" width="16" height="23" rx="2" fill="#fdfaf2" stroke="#ccc" stroke-width="1"/>
    <text x="218" y="223" fill="#c0392b" text-anchor="middle">A</text>
  </g>

  <!-- STOCK pile (center) -->
  <g filter="url(#shadow)">
    <rect x="390" y="172" width="54" height="78" rx="7" fill="url(#hatch)" stroke="#4a7acc" stroke-width="2"/>
  </g>
  <rect x="390" y="242" width="54" height="16" rx="8" fill="#2266bb"/>
  <text x="417" y="253" font-size="9" fill="white" text-anchor="middle" font-family="Georgia,serif">168</text>
  <text x="417" y="265" font-size="8" fill="rgba(253,248,238,0.38)" text-anchor="middle" font-family="Georgia,serif" letter-spacing="1">STOCK</text>

  <!-- DISCARD pile (center) -->
  <g filter="url(#shadow)">
    <rect x="456" y="172" width="54" height="78" rx="7" fill="#fdfaf2" stroke="#bbb" stroke-width="2"/>
    <text x="462" y="190" font-size="11" fill="#c0392b" font-family="Georgia,serif" font-weight="bold">Q</text>
    <text x="480" y="230" font-size="22" fill="#c0392b" text-anchor="middle" font-family="Georgia,serif">♥</text>
    <text x="492" y="244" font-size="11" fill="#c0392b" font-family="Georgia,serif" font-weight="bold" transform="rotate(180,492,244)">Q</text>
  </g>
  <text x="483" y="265" font-size="8" fill="rgba(253,248,238,0.38)" text-anchor="middle" font-family="Georgia,serif" letter-spacing="1">DISCARD</text>

  <!-- Foot info -->
  <text x="417" y="285" font-size="8" fill="rgba(253,248,238,0.28)" text-anchor="middle" font-family="Georgia,serif">✓ On Foot</text>

  <!-- P2 Melds label -->
  <text x="550" y="184" font-size="9" fill="rgba(253,248,238,0.32)" font-family="Georgia,serif" letter-spacing="1">P2 MELDS</text>
  <!-- AI meld block: 5s -->
  <rect x="550" y="190" width="60" height="50" rx="6" fill="rgba(0,0,0,0.3)" stroke="rgba(30,111,181,0.45)" stroke-width="1" stroke-dasharray="4,3"/>
  <text x="556" y="203" font-size="9" fill="#c9a030" font-family="Georgia,serif" font-weight="bold">5s</text>
  <g font-family="Georgia,serif" font-size="8" font-weight="bold">
    <rect x="554" y="207" width="16" height="23" rx="2" fill="#fdfaf2" stroke="#ccc" stroke-width="1"/>
    <text x="562" y="223" fill="#c0392b" text-anchor="middle">5</text>
    <rect x="572" y="207" width="16" height="23" rx="2" fill="#fdfaf2" stroke="#ccc" stroke-width="1"/>
    <text x="580" y="223" fill="#1a1a2e" text-anchor="middle">5</text>
    <rect x="590" y="207" width="16" height="23" rx="2" fill="#fdfaf2" stroke="#9b59b6" stroke-width="1"/>
    <text x="598" y="223" fill="#6c3483" text-anchor="middle">2</text>
  </g>
  <!-- AI meld block: Js -->
  <rect x="618" y="190" width="60" height="50" rx="6" fill="rgba(0,0,0,0.3)" stroke="rgba(30,111,181,0.45)" stroke-width="1" stroke-dasharray="4,3"/>
  <text x="624" y="203" font-size="9" fill="#c9a030" font-family="Georgia,serif" font-weight="bold">Js</text>
  <g font-family="Georgia,serif" font-size="8" font-weight="bold">
    <rect x="622" y="207" width="16" height="23" rx="2" fill="#fdfaf2" stroke="#ccc" stroke-width="1"/>
    <text x="630" y="223" fill="#1a1a2e" text-anchor="middle">J</text>
    <rect x="640" y="207" width="16" height="23" rx="2" fill="#fdfaf2" stroke="#ccc" stroke-width="1"/>
    <text x="648" y="223" fill="#c0392b" text-anchor="middle">J</text>
    <rect x="658" y="207" width="16" height="23" rx="2" fill="#fdfaf2" stroke="#ccc" stroke-width="1"/>
    <text x="666" y="223" fill="#1a1a2e" text-anchor="middle">J</text>
    <rect x="622" y="232" width="16" height="23" rx="2" fill="#fdfaf2" stroke="#ccc" stroke-width="1"/>
    <text x="630" y="248" fill="#c0392b" text-anchor="middle">J</text>
  </g>

  <!-- P1 ZONE (bottom, active) -->
  <rect x="10" y="292" width="880" height="136" rx="10" fill="rgba(0,0,0,0.22)" stroke="#c9a030" stroke-width="2" filter="url(#glow)"/>
  <!-- Active glow -->
  <rect x="10" y="292" width="880" height="136" rx="10" fill="none" stroke="#c9a030" stroke-width="2" opacity="0.3"/>
  <text x="22" y="313" font-family="Georgia,serif" font-size="14" font-weight="bold" fill="#c9a030">Player 1</text>
  <rect x="100" y="299" width="76" height="18" rx="3" fill="#c9a030"/>
  <text x="138" y="312" font-size="9" fill="#1a0e00" text-anchor="middle" font-family="Georgia,serif" font-weight="bold">YOUR TURN</text>
  <text x="860" y="313" font-size="11" fill="rgba(253,248,238,0.38)" text-anchor="end" font-family="Georgia,serif">12 cards</text>

  <!-- P1 hand cards — face up, sorted, one selected -->
  <g filter="url(#shadow)">
  <!-- 3♥ red (bad card) - sorted first -->
  <rect x="22" y="320" width="52" height="74" rx="6" fill="#fdfaf2" stroke="#c0392b" stroke-width="2"/>
  <text x="28" y="334" font-size="11" fill="#c0392b" font-family="Georgia,serif" font-weight="bold">3</text>
  <text x="48" y="374" font-size="22" fill="#c0392b" text-anchor="middle" font-family="Georgia,serif">♥</text>
  <text x="69" y="388" font-size="11" fill="#c0392b" font-family="Georgia,serif" font-weight="bold" transform="rotate(180,69,388)">3</text>

  <!-- 4♠ - selected (lifted + gold border) -->
  <rect x="80" y="308" width="52" height="74" rx="6" fill="#fdfaf2" stroke="#c9a030" stroke-width="3"/>
  <!-- gold glow ring -->
  <rect x="77" y="305" width="58" height="80" rx="8" fill="none" stroke="#c9a030" stroke-width="2" opacity="0.5"/>
  <text x="86" y="322" font-size="11" fill="#1a1a2e" font-family="Georgia,serif" font-weight="bold">4</text>
  <text x="106" y="362" font-size="22" fill="#1a1a2e" text-anchor="middle" font-family="Georgia,serif">♠</text>

  <!-- 4♦ - selected -->
  <rect x="138" y="308" width="52" height="74" rx="6" fill="#fdfaf2" stroke="#c9a030" stroke-width="3"/>
  <rect x="135" y="305" width="58" height="80" rx="8" fill="none" stroke="#c9a030" stroke-width="2" opacity="0.5"/>
  <text x="144" y="322" font-size="11" fill="#c0392b" font-family="Georgia,serif" font-weight="bold">4</text>
  <text x="164" y="362" font-size="22" fill="#c0392b" text-anchor="middle" font-family="Georgia,serif">♦</text>

  <!-- 4♣ - selected -->
  <rect x="196" y="308" width="52" height="74" rx="6" fill="#fdfaf2" stroke="#c9a030" stroke-width="3"/>
  <rect x="193" y="305" width="58" height="80" rx="8" fill="none" stroke="#c9a030" stroke-width="2" opacity="0.5"/>
  <text x="202" y="322" font-size="11" fill="#1a1a2e" font-family="Georgia,serif" font-weight="bold">4</text>
  <text x="222" y="362" font-size="22" fill="#1a1a2e" text-anchor="middle" font-family="Georgia,serif">♣</text>

  <!-- 7♠ -->
  <rect x="254" y="320" width="52" height="74" rx="6" fill="#fdfaf2" stroke="#ccc" stroke-width="2"/>
  <text x="260" y="334" font-size="11" fill="#1a1a2e" font-family="Georgia,serif" font-weight="bold">7</text>
  <text x="280" y="374" font-size="22" fill="#1a1a2e" text-anchor="middle" font-family="Georgia,serif">♠</text>

  <!-- 8♥ -->
  <rect x="312" y="320" width="52" height="74" rx="6" fill="#fdfaf2" stroke="#ccc" stroke-width="2"/>
  <text x="318" y="334" font-size="11" fill="#c0392b" font-family="Georgia,serif" font-weight="bold">8</text>
  <text x="338" y="374" font-size="22" fill="#c0392b" text-anchor="middle" font-family="Georgia,serif">♥</text>

  <!-- J♣ -->
  <rect x="370" y="320" width="52" height="74" rx="6" fill="#fdfaf2" stroke="#ccc" stroke-width="2"/>
  <text x="376" y="334" font-size="11" fill="#1a1a2e" font-family="Georgia,serif" font-weight="bold">J</text>
  <text x="396" y="374" font-size="22" fill="#1a1a2e" text-anchor="middle" font-family="Georgia,serif">♣</text>

  <!-- Q♦ -->
  <rect x="428" y="320" width="52" height="74" rx="6" fill="#fdfaf2" stroke="#ccc" stroke-width="2"/>
  <text x="434" y="334" font-size="11" fill="#c0392b" font-family="Georgia,serif" font-weight="bold">Q</text>
  <text x="454" y="374" font-size="22" fill="#c0392b" text-anchor="middle" font-family="Georgia,serif">♦</text>

  <!-- A♠ -->
  <rect x="486" y="320" width="52" height="74" rx="6" fill="#fdfaf2" stroke="#ccc" stroke-width="2"/>
  <text x="492" y="334" font-size="11" fill="#1a1a2e" font-family="Georgia,serif" font-weight="bold">A</text>
  <text x="512" y="374" font-size="22" fill="#1a1a2e" text-anchor="middle" font-family="Georgia,serif">♠</text>

  <!-- A♥ -->
  <rect x="544" y="320" width="52" height="74" rx="6" fill="#fdfaf2" stroke="#ccc" stroke-width="2"/>
  <text x="550" y="334" font-size="11" fill="#c0392b" font-family="Georgia,serif" font-weight="bold">A</text>
  <text x="570" y="374" font-size="22" fill="#c0392b" text-anchor="middle" font-family="Georgia,serif">♥</text>

  <!-- 2♠ wild -->
  <rect x="602" y="320" width="52" height="74" rx="6" fill="#fdfaf2" stroke="#9b59b6" stroke-width="2"/>
  <text x="608" y="334" font-size="11" fill="#6c3483" font-family="Georgia,serif" font-weight="bold">2</text>
  <text x="628" y="374" font-size="22" fill="#6c3483" text-anchor="middle" font-family="Georgia,serif">♠</text>

  <!-- 2♥ wild -->
  <rect x="660" y="320" width="52" height="74" rx="6" fill="#fdfaf2" stroke="#9b59b6" stroke-width="2"/>
  <text x="666" y="334" font-size="11" fill="#6c3483" font-family="Georgia,serif" font-weight="bold">2</text>
  <text x="686" y="374" font-size="22" fill="#6c3483" text-anchor="middle" font-family="Georgia,serif">♥</text>
  </g>

  <!-- MESSAGE BAR -->
  <rect x="0" y="434" width="900" height="36" fill="rgba(0,0,0,0.35)"/>
  <line x1="0" y1="434" x2="900" y2="434" stroke="rgba(201,160,48,0.12)" stroke-width="1"/>
  <text x="450" y="457" font-size="12" fill="#f0d060" font-style="italic" text-anchor="middle" font-family="Georgia,serif">Three 4s selected — 15 pts. Need 90 pts to open. Add more cards or a wild 2.</text>

  <!-- ACTION BAR -->
  <rect x="0" y="470" width="900" height="50" fill="rgba(0,0,0,0.4)"/>
  <line x1="0" y1="470" x2="900" y2="470" stroke="#7a5f10" stroke-width="2"/>
  <!-- Draw 2 (disabled - already drew) -->
  <rect x="8" y="478" width="110" height="34" rx="7" fill="rgba(46,139,82,0.32)" stroke="#c9a030" stroke-width="2" opacity="0.4"/>
  <text x="63" y="500" font-size="11" fill="rgba(253,248,238,0.4)" text-anchor="middle" font-family="Georgia,serif" font-weight="bold">🂠 DRAW 2</text>
  <!-- Take Pile (disabled) -->
  <rect x="126" y="478" width="120" height="34" rx="7" fill="rgba(26,58,138,0.32)" stroke="#4a7acc" stroke-width="2" opacity="0.4"/>
  <text x="186" y="500" font-size="11" fill="rgba(253,248,238,0.4)" text-anchor="middle" font-family="Georgia,serif" font-weight="bold">⬆ TAKE PILE</text>
  <!-- New Meld (active, highlighted) -->
  <rect x="254" y="478" width="140" height="34" rx="7" fill="rgba(0,0,0,0.2)" stroke="#c9a030" stroke-width="2"/>
  <text x="324" y="500" font-size="11" fill="#c9a030" text-anchor="middle" font-family="Georgia,serif" font-weight="bold">✦ OPEN (need 90pts)</text>
  <!-- Add -->
  <rect x="402" y="478" width="80" height="34" rx="7" fill="rgba(0,0,0,0.2)" stroke="#7a5f10" stroke-width="2"/>
  <text x="442" y="500" font-size="11" fill="#c9a030" text-anchor="middle" font-family="Georgia,serif" font-weight="bold">＋ ADD</text>
  <!-- Discard (red) -->
  <rect x="490" y="478" width="110" height="34" rx="7" fill="rgba(139,26,26,0.8)" stroke="#c0392b" stroke-width="2"/>
  <text x="545" y="500" font-size="11" fill="white" text-anchor="middle" font-family="Georgia,serif" font-weight="bold">✕ DISCARD</text>
  <!-- Go Out (dimmed) -->
  <rect x="608" y="478" width="110" height="34" rx="7" fill="rgba(0,0,0,0.1)" stroke="rgba(253,248,238,0.18)" stroke-width="2" opacity="0.4"/>
  <text x="663" y="500" font-size="11" fill="rgba(253,248,238,0.4)" text-anchor="middle" font-family="Georgia,serif" font-weight="bold">🏁 GO OUT</text>
  <!-- Home -->
  <rect x="726" y="478" width="50" height="34" rx="7" fill="rgba(0,0,0,0.1)" stroke="rgba(253,248,238,0.18)" stroke-width="2"/>
  <text x="751" y="500" font-size="14" fill="rgba(253,248,238,0.4)" text-anchor="middle" font-family="Georgia,serif">⌂</text>

  <!-- Caption overlay at bottom -->
  <rect x="0" y="505" width="900" height="15" fill="rgba(0,0,0,0.5)"/>
  <text x="450" y="515" font-size="8.5" fill="rgba(253,248,238,0.5)" text-anchor="middle" font-family="Georgia,serif" letter-spacing="0.5">Hand Over Foot · 2-Player Pass &amp; Play · Solo vs AI · Online Multiplayer via Invite Link</text>
</svg>